<mxfile host="65bd71144e">
    <diagram name="Page-1" id="j6fplzPcvg-Y2COIHhR6">
        <mxGraphModel dx="389" dy="389" grid="1" gridSize="10" guides="1" tooltips="1" connect="1" arrows="1" fold="1" page="1" pageScale="1" pageWidth="850" pageHeight="1100" math="0" shadow="0">
            <root>
                <mxCell id="0"/>
                <mxCell id="1" parent="0"/>
                <mxCell id="bge5SjlJH3JqmGSIwWhI-1" value="Review" style="swimlane;fontStyle=0;childLayout=stackLayout;horizontal=1;startSize=30;horizontalStack=0;resizeParent=1;resizeParentMax=0;resizeLast=0;collapsible=1;marginBottom=0;whiteSpace=wrap;html=1;fillColor=#dae8fc;strokeColor=#6c8ebf;" parent="1" vertex="1">
                    <mxGeometry x="250" y="170" width="220" height="120" as="geometry"/>
                </mxCell>
                <mxCell id="bge5SjlJH3JqmGSIwWhI-10" value="comment:string" style="text;strokeColor=none;fillColor=none;align=left;verticalAlign=middle;spacingLeft=4;spacingRight=4;overflow=hidden;points=[[0,0.5],[1,0.5]];portConstraint=eastwest;rotatable=0;whiteSpace=wrap;html=1;" parent="bge5SjlJH3JqmGSIwWhI-1" vertex="1">
                    <mxGeometry y="30" width="220" height="30" as="geometry"/>
                </mxCell>
                <mxCell id="bge5SjlJH3JqmGSIwWhI-45" value="book_id:integer" style="text;strokeColor=none;fillColor=none;align=left;verticalAlign=middle;spacingLeft=4;spacingRight=4;overflow=hidden;points=[[0,0.5],[1,0.5]];portConstraint=eastwest;rotatable=0;whiteSpace=wrap;html=1;" parent="bge5SjlJH3JqmGSIwWhI-1" vertex="1">
                    <mxGeometry y="60" width="220" height="30" as="geometry"/>
                </mxCell>
                <mxCell id="bge5SjlJH3JqmGSIwWhI-44" value="user_id:integer" style="text;strokeColor=none;fillColor=none;align=left;verticalAlign=middle;spacingLeft=4;spacingRight=4;overflow=hidden;points=[[0,0.5],[1,0.5]];portConstraint=eastwest;rotatable=0;whiteSpace=wrap;html=1;" parent="bge5SjlJH3JqmGSIwWhI-1" vertex="1">
                    <mxGeometry y="90" width="220" height="30" as="geometry"/>
                </mxCell>
                <mxCell id="bge5SjlJH3JqmGSIwWhI-5" value="User" style="swimlane;fontStyle=0;childLayout=stackLayout;horizontal=1;startSize=30;horizontalStack=0;resizeParent=1;resizeParentMax=0;resizeLast=0;collapsible=1;marginBottom=0;whiteSpace=wrap;html=1;movable=1;resizable=1;rotatable=1;deletable=1;editable=1;connectable=1;container=0;fillColor=#d5e8d4;strokeColor=#82b366;" parent="1" vertex="1">
                    <mxGeometry x="20" y="170" width="160" height="120" as="geometry">
                        <mxRectangle x="80" y="160" width="70" height="30" as="alternateBounds"/>
                    </mxGeometry>
                </mxCell>
                <mxCell id="bge5SjlJH3JqmGSIwWhI-52" value="id" style="text;strokeColor=none;fillColor=none;align=left;verticalAlign=middle;spacingLeft=4;spacingRight=4;overflow=hidden;points=[[0,0.5],[1,0.5]];portConstraint=eastwest;rotatable=0;whiteSpace=wrap;html=1;" parent="bge5SjlJH3JqmGSIwWhI-5" vertex="1">
                    <mxGeometry y="30" width="160" height="30" as="geometry"/>
                </mxCell>
                <mxCell id="bge5SjlJH3JqmGSIwWhI-6" value="username:string" style="text;strokeColor=none;fillColor=none;align=left;verticalAlign=middle;spacingLeft=4;spacingRight=4;overflow=hidden;points=[[0,0.5],[1,0.5]];portConstraint=eastwest;rotatable=0;whiteSpace=wrap;html=1;" parent="bge5SjlJH3JqmGSIwWhI-5" vertex="1">
                    <mxGeometry y="60" width="160" height="30" as="geometry"/>
                </mxCell>
                <mxCell id="bge5SjlJH3JqmGSIwWhI-7" value="password_digest:string" style="text;strokeColor=none;fillColor=none;align=left;verticalAlign=middle;spacingLeft=4;spacingRight=4;overflow=hidden;points=[[0,0.5],[1,0.5]];portConstraint=eastwest;rotatable=0;whiteSpace=wrap;html=1;" parent="bge5SjlJH3JqmGSIwWhI-5" vertex="1">
                    <mxGeometry y="90" width="160" height="30" as="geometry"/>
                </mxCell>
                <mxCell id="bge5SjlJH3JqmGSIwWhI-9" value="Book" style="swimlane;fontStyle=0;childLayout=stackLayout;horizontal=1;startSize=30;horizontalStack=0;resizeParent=1;resizeParentMax=0;resizeLast=0;collapsible=1;marginBottom=0;whiteSpace=wrap;html=1;fillColor=#d5e8d4;strokeColor=#82b366;" parent="1" vertex="1">
                    <mxGeometry x="530" y="170" width="140" height="180" as="geometry"/>
                </mxCell>
                <mxCell id="bge5SjlJH3JqmGSIwWhI-53" value="id" style="text;strokeColor=none;fillColor=none;align=left;verticalAlign=middle;spacingLeft=4;spacingRight=4;overflow=hidden;points=[[0,0.5],[1,0.5]];portConstraint=eastwest;rotatable=0;whiteSpace=wrap;html=1;" parent="bge5SjlJH3JqmGSIwWhI-9" vertex="1">
                    <mxGeometry y="30" width="140" height="30" as="geometry"/>
                </mxCell>
                <mxCell id="bge5SjlJH3JqmGSIwWhI-2" value="title:string" style="text;strokeColor=none;fillColor=none;align=left;verticalAlign=middle;spacingLeft=4;spacingRight=4;overflow=hidden;points=[[0,0.5],[1,0.5]];portConstraint=eastwest;rotatable=0;whiteSpace=wrap;html=1;" parent="bge5SjlJH3JqmGSIwWhI-9" vertex="1">
                    <mxGeometry y="60" width="140" height="30" as="geometry"/>
                </mxCell>
                <mxCell id="bge5SjlJH3JqmGSIwWhI-3" value="author:string" style="text;strokeColor=none;fillColor=none;align=left;verticalAlign=middle;spacingLeft=4;spacingRight=4;overflow=hidden;points=[[0,0.5],[1,0.5]];portConstraint=eastwest;rotatable=0;whiteSpace=wrap;html=1;" parent="bge5SjlJH3JqmGSIwWhI-9" vertex="1">
                    <mxGeometry y="90" width="140" height="30" as="geometry"/>
                </mxCell>
                <mxCell id="bge5SjlJH3JqmGSIwWhI-57" value="genre:string" style="text;strokeColor=none;fillColor=none;align=left;verticalAlign=middle;spacingLeft=4;spacingRight=4;overflow=hidden;points=[[0,0.5],[1,0.5]];portConstraint=eastwest;rotatable=0;whiteSpace=wrap;html=1;" parent="bge5SjlJH3JqmGSIwWhI-9" vertex="1">
                    <mxGeometry y="120" width="140" height="30" as="geometry"/>
                </mxCell>
                <mxCell id="bge5SjlJH3JqmGSIwWhI-54" value="image:string" style="text;strokeColor=none;fillColor=none;align=left;verticalAlign=middle;spacingLeft=4;spacingRight=4;overflow=hidden;points=[[0,0.5],[1,0.5]];portConstraint=eastwest;rotatable=0;whiteSpace=wrap;html=1;" parent="bge5SjlJH3JqmGSIwWhI-9" vertex="1">
                    <mxGeometry y="150" width="140" height="30" as="geometry"/>
                </mxCell>
                <mxCell id="bge5SjlJH3JqmGSIwWhI-49" value="" style="endArrow=classic;html=1;rounded=0;fontColor=#000099;exitX=1;exitY=0.5;exitDx=0;exitDy=0;entryX=0;entryY=0.5;entryDx=0;entryDy=0;" parent="1" source="bge5SjlJH3JqmGSIwWhI-52" target="bge5SjlJH3JqmGSIwWhI-44" edge="1">
                    <mxGeometry width="50" height="50" relative="1" as="geometry">
                        <mxPoint x="280" y="370" as="sourcePoint"/>
                        <mxPoint x="330" y="320" as="targetPoint"/>
                    </mxGeometry>
                </mxCell>
                <mxCell id="bge5SjlJH3JqmGSIwWhI-51" value="" style="endArrow=classic;html=1;rounded=0;fontColor=#000099;exitX=0;exitY=0.5;exitDx=0;exitDy=0;entryX=1;entryY=0.5;entryDx=0;entryDy=0;" parent="1" source="bge5SjlJH3JqmGSIwWhI-53" target="bge5SjlJH3JqmGSIwWhI-45" edge="1">
                    <mxGeometry width="50" height="50" relative="1" as="geometry">
                        <mxPoint x="280" y="370" as="sourcePoint"/>
                        <mxPoint x="330" y="320" as="targetPoint"/>
                    </mxGeometry>
                </mxCell>
                <mxCell id="bge5SjlJH3JqmGSIwWhI-60" value="&lt;font color=&quot;#cc0066&quot;&gt;join table with foreign keys&lt;/font&gt;" style="text;html=1;align=center;verticalAlign=middle;resizable=0;points=[];autosize=1;strokeColor=none;fillColor=none;fontColor=#000099;" parent="1" vertex="1">
                    <mxGeometry x="280" y="140" width="160" height="30" as="geometry"/>
                </mxCell>
                <mxCell id="bge5SjlJH3JqmGSIwWhI-62" value="&lt;h1&gt;&lt;font color=&quot;#ffffff&quot;&gt;&lt;br&gt;&lt;/font&gt;&lt;/h1&gt;&lt;div style=&quot;background-color: rgb(40, 42, 54); font-family: Menlo, Monaco, &amp;quot;Courier New&amp;quot;, monospace; line-height: 18px;&quot;&gt;&lt;div style=&quot;&quot;&gt;&lt;font color=&quot;#ffffff&quot;&gt;class User&lt;span style=&quot;font-style: italic;&quot;&gt; &lt;/span&gt;&lt;span style=&quot;font-style: italic;&quot;&gt;&amp;lt;&lt;/span&gt;&lt;span style=&quot;font-style: italic;&quot;&gt; ApplicationRecord&lt;/span&gt;&lt;/font&gt;&lt;/div&gt;&lt;div style=&quot;&quot;&gt;&lt;font color=&quot;#ffffff&quot;&gt;&amp;nbsp; has_many :reviews&lt;/font&gt;&lt;/div&gt;&lt;div style=&quot;&quot;&gt;&lt;font color=&quot;#ffffff&quot;&gt;&amp;nbsp; has_many :books, through: :reviews&lt;/font&gt;&lt;/div&gt;&lt;div style=&quot;&quot;&gt;&lt;font color=&quot;#ffffff&quot;&gt;&amp;nbsp; has_many :posts&lt;/font&gt;&lt;/div&gt;&lt;div style=&quot;&quot;&gt;&lt;font color=&quot;#ffffff&quot;&gt;end&lt;/font&gt;&lt;/div&gt;&lt;font color=&quot;#ffffff&quot;&gt;&lt;br&gt;&lt;/font&gt;&lt;div style=&quot;&quot;&gt;&lt;font color=&quot;#ffffff&quot;&gt;class&amp;nbsp;Review&lt;span style=&quot;font-style: italic;&quot;&gt;&amp;nbsp;&lt;/span&gt;&lt;span style=&quot;font-style: italic;&quot;&gt;&amp;lt;&lt;/span&gt;&lt;span style=&quot;font-style: italic;&quot;&gt; ApplicationRecord&lt;/span&gt;&lt;/font&gt;&lt;/div&gt;&lt;div style=&quot;&quot;&gt;&lt;font color=&quot;#ffffff&quot;&gt;&amp;nbsp; belongs_to :book&lt;/font&gt;&lt;/div&gt;&lt;div style=&quot;&quot;&gt;&lt;font color=&quot;#ffffff&quot;&gt;&amp;nbsp; belongs_to :user&lt;/font&gt;&lt;/div&gt;&lt;div style=&quot;&quot;&gt;&lt;font color=&quot;#ffffff&quot;&gt;end&lt;/font&gt;&lt;/div&gt;&lt;font color=&quot;#ffffff&quot;&gt;&lt;br&gt;&lt;/font&gt;&lt;div style=&quot;&quot;&gt;&lt;font color=&quot;#ffffff&quot;&gt;class&amp;nbsp;Book&lt;span style=&quot;font-style: italic;&quot;&gt;&amp;nbsp;&lt;/span&gt;&lt;span style=&quot;font-style: italic;&quot;&gt;&amp;lt;&lt;/span&gt;&lt;span style=&quot;font-style: italic;&quot;&gt; ApplicationRecord&lt;/span&gt;&lt;/font&gt;&lt;/div&gt;&lt;div style=&quot;&quot;&gt;&lt;font color=&quot;#ffffff&quot;&gt;&amp;nbsp; has_many :reviews&lt;/font&gt;&lt;/div&gt;&lt;div style=&quot;&quot;&gt;&lt;font color=&quot;#ffffff&quot;&gt;&amp;nbsp; has_many&amp;nbsp;:users, through: :reviews&lt;/font&gt;&lt;/div&gt;&lt;div style=&quot;&quot;&gt;&lt;font color=&quot;#ffffff&quot;&gt;end&lt;/font&gt;&lt;/div&gt;&lt;div style=&quot;&quot;&gt;&lt;font color=&quot;#ffffff&quot;&gt;&lt;br&gt;&lt;/font&gt;&lt;/div&gt;&lt;div style=&quot;&quot;&gt;&lt;span style=&quot;border-color: var(--border-color);&quot;&gt;&lt;font color=&quot;#ffffff&quot;&gt;class Post&lt;/font&gt;&amp;nbsp;&lt;/span&gt;&lt;span style=&quot;border-color: var(--border-color); color: rgb(255, 255, 255); font-style: italic;&quot;&gt;&amp;lt;&lt;/span&gt;&lt;span style=&quot;border-color: var(--border-color); color: rgb(255, 255, 255); font-style: italic;&quot;&gt;&amp;nbsp;ApplicationRecord&lt;/span&gt;&lt;br&gt;&lt;/div&gt;&lt;div style=&quot;&quot;&gt;&lt;font color=&quot;#ffffff&quot;&gt;&amp;nbsp; belongs_to :user&lt;/font&gt;&lt;/div&gt;&lt;div style=&quot;&quot;&gt;&lt;font color=&quot;#ffffff&quot;&gt;end&lt;/font&gt;&lt;/div&gt;&lt;br&gt;&lt;/div&gt;" style="text;html=1;strokeColor=none;fillColor=none;spacing=5;spacingTop=-20;whiteSpace=wrap;overflow=hidden;rounded=0;fontColor=#000099;" parent="1" vertex="1">
                    <mxGeometry x="70" y="500" width="520" height="410" as="geometry"/>
                </mxCell>
                <mxCell id="bge5SjlJH3JqmGSIwWhI-63" value="&lt;font color=&quot;#33001a&quot;&gt;MVP&lt;br&gt;&lt;ul&gt;&lt;li&gt;&lt;font color=&quot;#33001a&quot;&gt;3 models&lt;/font&gt;&lt;/li&gt;&lt;li&gt;&lt;font color=&quot;#33001a&quot;&gt;join table&lt;/font&gt;&lt;/li&gt;&lt;li&gt;&lt;font color=&quot;#33001a&quot;&gt;2 many/belongs to relationships&lt;/font&gt;&lt;/li&gt;&lt;li&gt;&lt;font color=&quot;#33001a&quot;&gt;2 many, through relationships&lt;/font&gt;&lt;/li&gt;&lt;li&gt;&lt;font color=&quot;#33001a&quot;&gt;must display one through relationship and show it works properly in application and other show it works in console.&lt;/font&gt;&lt;/li&gt;&lt;/ul&gt;&lt;/font&gt;" style="text;whiteSpace=wrap;html=1;fontColor=#FFFFFF;" parent="1" vertex="1">
                    <mxGeometry x="420" y="640" width="220" height="160" as="geometry"/>
                </mxCell>
                <mxCell id="cmSUOXhXSp2-0NIFdZZ2-1" value="Post" style="swimlane;fontStyle=0;childLayout=stackLayout;horizontal=1;startSize=30;horizontalStack=0;resizeParent=1;resizeParentMax=0;resizeLast=0;collapsible=1;marginBottom=0;whiteSpace=wrap;html=1;movable=1;resizable=1;rotatable=1;deletable=1;editable=1;connectable=1;container=0;fillColor=#d5e8d4;strokeColor=#82b366;" parent="1" vertex="1">
                    <mxGeometry x="280" y="330" width="160" height="150" as="geometry">
                        <mxRectangle x="80" y="160" width="70" height="30" as="alternateBounds"/>
                    </mxGeometry>
                </mxCell>
                <mxCell id="cmSUOXhXSp2-0NIFdZZ2-2" value="id" style="text;strokeColor=none;fillColor=none;align=left;verticalAlign=middle;spacingLeft=4;spacingRight=4;overflow=hidden;points=[[0,0.5],[1,0.5]];portConstraint=eastwest;rotatable=0;whiteSpace=wrap;html=1;" parent="cmSUOXhXSp2-0NIFdZZ2-1" vertex="1">
                    <mxGeometry y="30" width="160" height="30" as="geometry"/>
                </mxCell>
                <mxCell id="cmSUOXhXSp2-0NIFdZZ2-3" value="post_image:string" style="text;strokeColor=none;fillColor=none;align=left;verticalAlign=middle;spacingLeft=4;spacingRight=4;overflow=hidden;points=[[0,0.5],[1,0.5]];portConstraint=eastwest;rotatable=0;whiteSpace=wrap;html=1;" parent="cmSUOXhXSp2-0NIFdZZ2-1" vertex="1">
                    <mxGeometry y="60" width="160" height="30" as="geometry"/>
                </mxCell>
                <mxCell id="cmSUOXhXSp2-0NIFdZZ2-4" value="likes:integer" style="text;strokeColor=none;fillColor=none;align=left;verticalAlign=middle;spacingLeft=4;spacingRight=4;overflow=hidden;points=[[0,0.5],[1,0.5]];portConstraint=eastwest;rotatable=0;whiteSpace=wrap;html=1;" parent="cmSUOXhXSp2-0NIFdZZ2-1" vertex="1">
                    <mxGeometry y="90" width="160" height="30" as="geometry"/>
                </mxCell>
                <mxCell id="cmSUOXhXSp2-0NIFdZZ2-6" value="user_id" style="text;strokeColor=none;fillColor=none;align=left;verticalAlign=middle;spacingLeft=4;spacingRight=4;overflow=hidden;points=[[0,0.5],[1,0.5]];portConstraint=eastwest;rotatable=0;whiteSpace=wrap;html=1;" parent="cmSUOXhXSp2-0NIFdZZ2-1" vertex="1">
                    <mxGeometry y="120" width="160" height="30" as="geometry"/>
                </mxCell>
                <mxCell id="cmSUOXhXSp2-0NIFdZZ2-5" value="" style="endArrow=classic;html=1;rounded=0;exitX=1;exitY=0.5;exitDx=0;exitDy=0;" parent="1" source="bge5SjlJH3JqmGSIwWhI-52" edge="1">
                    <mxGeometry width="50" height="50" relative="1" as="geometry">
                        <mxPoint x="340" y="320" as="sourcePoint"/>
                        <mxPoint x="280" y="460" as="targetPoint"/>
                    </mxGeometry>
                </mxCell>
            </root>
        </mxGraphModel>
    </diagram>
</mxfile>